<svg width="45" height="46" viewBox="0 0 45 46" fill="none" xmlns="http://www.w3.org/2000/svg">
<g clip-path="url(#clip0_7_182)">
<path d="M7.81349 0.452148C7.33009 0.768555 7.20705 1.12012 7.20705 2.15723V3.0625H5.68654C4.05177 3.0625 3.62111 3.13281 2.77736 3.56348C2.19728 3.85352 1.459 4.57422 1.09865 5.18066C0.483414 6.23535 0.527359 4.75 0.527359 24.1738C0.527359 39.9502 0.544937 41.752 0.667984 42.1738C1.08107 43.5537 2.22365 44.6963 3.60353 45.1094C4.02541 45.2324 5.90627 45.25 22.5088 45.25C40.5791 45.25 40.9483 45.25 41.4932 45.0742C42.8731 44.6523 43.8399 43.668 44.3496 42.1738C44.5078 41.708 44.5166 41.1191 44.5166 24.1562V6.62207L44.3145 6.04199C43.8223 4.61816 42.8115 3.64258 41.3965 3.22949C40.9307 3.09766 40.5352 3.0625 39.3135 3.0625H37.793V2.11328C37.793 1.33105 37.7666 1.12891 37.6172 0.882812C37.0723 -0.00488281 35.7188 0.0302734 35.2354 0.953125C35.1035 1.19043 35.0684 1.4541 35.0684 2.15723V3.0625H33.794H32.5195V2.11328C32.5195 1.33105 32.4932 1.12891 32.3438 0.882812C31.7988 -0.00488281 30.4453 0.0302734 29.9619 0.953125C29.8301 1.19043 29.7949 1.4541 29.7949 2.15723V3.0625H22.5H15.2051V2.15723C15.2051 1.12012 15.082 0.768555 14.5986 0.452148C14.1856 0.170898 13.5 0.170898 13.0869 0.452148C12.6035 0.768555 12.4805 1.12012 12.4805 2.15723V3.0625H11.2061H9.93166V2.11328C9.93166 1.0498 9.8174 0.742188 9.29884 0.425781C8.88576 0.179688 8.20021 0.188477 7.81349 0.452148ZM7.20705 6.68359C7.20705 7.46582 7.23341 7.61523 7.41798 7.94043C7.81349 8.6084 8.75392 8.80176 9.40431 8.33594C9.8174 8.03711 9.93166 7.68555 9.93166 6.66602V5.78711H11.2061H12.4805V6.6748C12.4805 7.68555 12.6035 8.0459 13.043 8.3623C13.4297 8.63477 14.2559 8.63477 14.6426 8.3623C15.082 8.0459 15.2051 7.68555 15.2051 6.6748V5.78711H22.5H29.7949V6.63965C29.7949 7.30762 29.8301 7.5625 29.9707 7.85254C30.4102 8.7666 31.7461 8.8457 32.3174 7.99316C32.4932 7.72949 32.5195 7.58887 32.5195 6.74512V5.78711H33.794H35.0684V6.63965C35.0684 7.30762 35.1035 7.5625 35.2442 7.85254C35.71 8.81934 37.1514 8.8457 37.6348 7.8877C37.7578 7.65918 37.793 7.36914 37.793 6.68359V5.78711H39.1377C40.6319 5.78711 40.9922 5.88379 41.4141 6.38477C41.7569 6.79785 41.836 7.36035 41.836 9.47852V11.4121H22.544H3.25197V9.21484C3.25197 7.22852 3.26955 6.98242 3.41896 6.68359C3.80568 5.92773 4.16603 5.7959 5.87111 5.78711H7.20705V6.68359ZM41.8184 27.7334C41.792 40.2227 41.7832 41.3564 41.6426 41.6025C41.4492 41.9541 41.0625 42.3145 40.7549 42.4287C40.5791 42.499 34.9981 42.5254 22.4736 42.5254C5.0713 42.5254 4.42091 42.5166 4.13087 42.3584C3.96388 42.2705 3.709 42.0508 3.55959 41.875L3.29591 41.541L3.26955 27.8389L3.25197 14.1367H22.544H41.836L41.8184 27.7334Z" fill="#B2AAAA"/>
<path d="M21.4102 17.8369C17.9033 18.1885 14.7217 20.3594 13.1221 23.5147C12.2959 25.1231 11.9531 26.5469 11.9531 28.3135C11.9531 30.6953 12.6299 32.7959 13.9922 34.6328C18.4922 40.6973 27.7031 40.2578 31.6055 33.7891C33.4951 30.6514 33.5654 26.4238 31.7725 23.2334C29.707 19.5332 25.6289 17.4151 21.4102 17.8369ZM24.6094 20.8164C27.2197 21.5723 29.3115 23.6641 30.0586 26.2656C30.2959 27.0918 30.3926 28.7969 30.2432 29.6494C29.4961 33.9385 25.3213 36.8653 21.0938 36.0567C18.1318 35.4942 15.7764 33.3145 14.9238 30.335C14.7568 29.7549 14.7217 29.4473 14.7305 28.3311C14.7393 27.1621 14.7656 26.9248 14.9678 26.2393C15.8379 23.4004 18.0615 21.3262 20.918 20.6846C21.7705 20.4912 23.748 20.5615 24.6094 20.8164Z" fill="#B2AAAA"/>
<path d="M25.6641 24.7363C25.4883 24.8154 24.5391 25.6855 23.3965 26.8193L21.4453 28.7705L20.4961 27.8301C19.9776 27.3203 19.4678 26.8545 19.3623 26.8018C19.1162 26.6787 18.501 26.6787 18.2549 26.8018C17.6573 27.1094 17.3408 27.7246 17.4551 28.3574C17.499 28.6299 17.7627 28.9287 19.0635 30.2471C19.916 31.1084 20.7158 31.873 20.8477 31.9434C21.1553 32.1016 21.8233 32.1016 22.1309 31.9434C22.2627 31.873 23.5196 30.6602 24.9346 29.2363C27.6856 26.4678 27.7031 26.4502 27.5625 25.6943C27.4483 25.0967 26.7891 24.5869 26.1475 24.5957C26.0508 24.6045 25.8311 24.666 25.6641 24.7363Z" fill="#B2AAAA"/>
</g>
<defs>
<clipPath id="clip0_7_182">
<rect width="45" height="45" fill="white" transform="translate(0 0.25)"/>
</clipPath>
</defs>
</svg>
