<svg width="46" height="46" viewBox="0 0 46 46" fill="none" xmlns="http://www.w3.org/2000/svg">
<g clip-path="url(#clip0_7_191)">
<path d="M14.1621 3.8623C9.42478 5.83984 5.46092 7.53613 5.35545 7.6416C5.24998 7.74707 5.11814 7.93164 5.05662 8.06347C4.98631 8.23925 4.96873 10.3223 4.9951 15.6836C5.02146 22.8115 5.03025 23.1016 5.22361 24.2881C6.41893 31.7939 10.4531 38.1133 16.6846 42.2354C18.8379 43.668 22.292 45.25 23.25 45.25C23.8213 45.25 25.6582 44.5381 27.416 43.6416C34.6582 39.9414 39.8525 32.8574 41.1709 24.8594C41.5049 22.8379 41.5312 22.082 41.5312 15.0859C41.5312 7.79101 41.54 7.99316 41.1181 7.60644C41.0215 7.52734 37.0576 5.83105 32.3027 3.85351C24.6299 0.654293 23.6103 0.249996 23.2148 0.258785C22.8369 0.267574 21.4746 0.803707 14.1621 3.8623ZM31.1338 6.34082L38.8066 9.52246V15.7187C38.8066 20.667 38.7803 22.1436 38.6748 23.04C38.1826 27.2676 36.6181 31.1699 34.0517 34.5801C33.2168 35.6963 31.2744 37.6914 30.1494 38.5967C28.9277 39.5811 27.4336 40.5479 26.0801 41.2334C24.8584 41.8574 23.4961 42.4375 23.2588 42.4375C23.0127 42.4375 21.6152 41.8486 20.4375 41.251C19.1015 40.5654 17.5283 39.5547 16.3506 38.5967C15.2256 37.6914 13.2832 35.6963 12.457 34.5889C10.4971 31.9873 9.11717 29.0869 8.36131 26.002C7.73729 23.4443 7.75486 23.6025 7.71971 16.2021L7.69334 9.52246L15.4453 6.29687C19.7168 4.52148 23.2676 3.08886 23.3379 3.10644C23.4082 3.13281 26.9238 4.583 31.1338 6.34082Z" fill="#B2AAAA"/>
<path d="M28.6113 13.2666C28.4883 13.3106 26.915 14.8223 25.122 16.624L21.8437 19.8936L20.2881 18.3379C17.9502 16.0176 18.2138 15.9824 15.1025 19.085C13.1162 21.0713 12.791 21.4317 12.747 21.7129C12.5976 22.5303 12.4482 22.3545 16.9922 26.8985C21.0967 30.9942 21.1933 31.0908 21.5888 31.1436C21.9052 31.1875 22.0898 31.1612 22.3799 31.0293C22.6699 30.8975 24.2343 29.3858 28.5849 25.0264C34.8955 18.6895 34.6142 19.0235 34.456 18.2061C34.4033 17.916 34.0869 17.5557 32.1884 15.6485C30.9668 14.418 29.8681 13.3633 29.7363 13.293C29.4638 13.1524 28.9365 13.1436 28.6113 13.2666ZM30.1933 17.5205L31.2041 18.5313L26.5195 23.2158L21.8437 27.8916L18.9258 24.9737L15.999 22.0469L17.0273 21.0186L18.0644 19.9815L19.6201 21.5371C20.9384 22.8379 21.2373 23.0928 21.5185 23.1455C22.3095 23.2949 22.2304 23.3565 25.7988 19.7969C27.6093 17.9863 29.1123 16.5098 29.1386 16.5098C29.165 16.5098 29.6396 16.9668 30.1933 17.5205Z" fill="#B2AAAA"/>
</g>
<defs>
<clipPath id="clip0_7_191">
<rect width="45" height="45" fill="white" transform="translate(0.75 0.25)"/>
</clipPath>
</defs>
</svg>
