<svg width="45" height="46" viewBox="0 0 45 46" fill="none" xmlns="http://www.w3.org/2000/svg">
<g clip-path="url(#clip0_7_178)">
<path d="M0.386719 0.636719L0 1.02344L0.0175781 19.9463L0.0439453 38.8779L0.333984 39.7129C0.870117 41.2422 1.75781 42.5254 2.94434 43.4834C3.78809 44.1602 4.5 44.5557 5.53711 44.916L6.37207 45.2061L25.3037 45.2324L44.2266 45.25L44.6133 44.8633L45 44.4854V37.5508C45 30.8359 44.9912 30.6074 44.8242 30.335C44.4551 29.7285 44.5605 29.7461 40.5791 29.6934L36.9844 29.6494L39.876 27.9883C41.458 27.0742 42.8555 26.2393 42.9609 26.1426C43.2773 25.8613 43.418 25.5273 43.418 25.0703C43.418 24.6836 43.1895 24.2529 40.1484 18.9795C38.3467 15.8594 36.7559 13.1787 36.624 13.0205C36.334 12.6953 35.8066 12.5107 35.3936 12.6074C35.2354 12.6338 33.8115 13.416 32.2119 14.3389C30.6211 15.2529 29.2764 16.0264 29.2324 16.0527C29.1885 16.0791 29.1709 16.0615 29.1973 16.0176C30.8584 13.1875 32.5986 10.0674 32.6426 9.85645C32.7393 9.44336 32.5547 8.91602 32.2295 8.62598C32.0713 8.49414 29.3906 6.90332 26.2705 5.10156C20.9971 2.06055 20.5664 1.83203 20.1797 1.83203C19.7227 1.83203 19.3887 1.97266 19.1074 2.28906C19.0107 2.39453 18.1758 3.79199 17.2617 5.38281L15.6006 8.26562L15.5566 4.6709C15.5039 0.689453 15.5215 0.794922 14.915 0.425781C14.6426 0.258789 14.4141 0.25 7.69922 0.25H0.764648L0.386719 0.636719ZM12.832 8.01953V13.0645L7.81348 21.748C5.05371 26.5293 2.78613 30.458 2.75977 30.4756C2.74219 30.4932 2.72461 24.3145 2.72461 16.7471V2.97461H7.77832H12.832V8.01953ZM25.1367 7.67676C27.3867 8.96875 29.2588 10.0586 29.2939 10.0938C29.3291 10.1201 28.2217 12.124 26.833 14.5322L24.3018 18.9004L16.6992 23.2949C12.5156 25.7031 8.58691 27.9795 7.96289 28.3398C7.13672 28.8145 6.86426 28.9375 6.96094 28.7969C7.03125 28.6826 10.0723 23.4355 13.7109 17.125C17.3496 10.8145 20.3994 5.52344 20.4961 5.36523C20.6631 5.10156 20.6895 5.08398 20.8652 5.19824C20.9619 5.25977 22.8867 6.37598 25.1367 7.67676ZM37.6523 20.2451C39.6826 23.7432 40.1221 24.5693 40.0254 24.6484C39.9639 24.7012 37.9775 25.8613 35.6133 27.2148L31.3154 29.6934L21.2959 29.6758L11.2676 29.6494L23.1504 22.7852C29.6807 19.0059 35.0596 15.9209 35.0947 15.9297C35.1299 15.9385 36.29 17.8809 37.6523 20.2451ZM42.2754 37.4717V42.5254L24.6357 42.5078L6.9873 42.4814L6.40723 42.2881C3.48926 41.2949 2.10938 38.0254 3.44531 35.2656C3.86719 34.3867 4.85156 33.4023 5.72168 32.9893C6.97852 32.4004 5.75684 32.4355 24.8994 32.4268L42.2754 32.418V37.4717Z" fill="#B2AAAA"/>
<path d="M7.11915 36.2763C6.22266 36.7509 6.16993 38.0605 7.02247 38.6318C7.85743 39.1943 9.14063 38.5527 9.14063 37.5771C9.14063 36.4873 8.042 35.7754 7.11915 36.2763Z" fill="#B2AAAA"/>
</g>
<defs>
<clipPath id="clip0_7_178">
<rect width="45" height="45" fill="white" transform="translate(0 0.25)"/>
</clipPath>
</defs>
</svg>
