<svg width="46" height="46" viewBox="0 0 46 46" fill="none" xmlns="http://www.w3.org/2000/svg">
<g clip-path="url(#clip0_7_166)">
<path d="M10.964 0.416992C10.4102 0.786133 10.3487 1.01465 10.3136 2.68457L10.2784 4.19629L6.64853 4.22266C3.1329 4.24902 3.00986 4.25781 2.77255 4.43359C2.64072 4.53027 2.44736 4.72363 2.35068 4.85547C2.1749 5.08398 2.16611 5.21582 2.16611 7.08789C2.16611 8.44141 2.20126 9.28516 2.28915 9.69824C3.02744 13.3984 5.74326 16.4043 9.29404 17.4326C9.71591 17.5557 10.2608 17.6787 10.5157 17.7051C10.7706 17.7402 11.0167 17.7842 11.0606 17.8193C11.1134 17.8457 11.3331 18.2676 11.5616 18.751C12.7833 21.335 14.8399 23.4355 17.4151 24.7275C17.8282 24.9297 18.3116 25.1494 18.4962 25.2021L18.8214 25.3164V27.6719V30.0273L18.4962 30.0889C17.5645 30.2559 16.1056 31.0996 15.3321 31.8994C14.5587 32.7168 13.838 34.0176 13.6798 34.8965L13.6183 35.2305H12.3263C10.8849 35.2305 10.6388 35.3096 10.296 35.8633C10.129 36.1357 10.1202 36.3115 10.1202 39.3789V42.6133H9.01279C8.1163 42.6133 7.85263 42.6396 7.64169 42.7715C6.81552 43.2549 6.81552 44.6084 7.64169 45.0918C7.88779 45.2412 8.78427 45.25 23.0401 45.25C37.296 45.25 38.1925 45.2412 38.4386 45.1006C39.2647 44.6084 39.2647 43.2549 38.4386 42.7715C38.2276 42.6396 37.964 42.6133 37.0675 42.6133H35.9601V39.3789C35.9601 36.3115 35.9513 36.1357 35.7843 35.8633C35.4415 35.3096 35.1954 35.2305 33.754 35.2305H32.462L32.4005 34.8965C32.2423 34.0176 31.5128 32.708 30.7481 31.9082C29.9835 31.1084 28.6915 30.3438 27.7159 30.1152L27.2589 30.001V27.6543V25.3164L27.5929 25.2021C28.1642 25.0176 29.3946 24.3672 30.2472 23.7959C31.3019 23.0928 32.752 21.6514 33.4728 20.5879C33.921 19.9375 34.7735 18.3467 34.9229 17.916C34.9405 17.8545 35.2745 17.7578 35.67 17.6875C38.8692 17.1338 41.5411 15.1035 42.9562 12.1592C43.7647 10.4805 43.9845 9.25879 43.9405 6.73633C43.9142 4.94336 43.8878 4.86426 43.3077 4.43359C43.0704 4.25781 42.9474 4.24902 39.4317 4.22266L35.8019 4.19629L35.7667 2.68457C35.7403 1.31348 35.7228 1.14648 35.547 0.865234C35.4415 0.698242 35.2394 0.487305 35.0987 0.399414C34.8526 0.258789 34.1144 0.25 23.0226 0.25C11.5528 0.25 11.2101 0.258789 10.964 0.416992ZM33.0333 8.70508C32.9894 14.9277 32.9894 14.9893 32.5235 16.4219C32.2159 17.3623 31.4249 18.7861 30.7481 19.6299C29.3155 21.3965 27.1007 22.7148 24.8683 23.1455C24.0157 23.3037 22.2491 23.3301 21.4405 23.1895C20.4561 23.0137 19.419 22.6621 18.4698 22.1699C15.8243 20.7988 13.9347 18.3203 13.2667 15.3232C13.0909 14.585 13.0821 14.1631 13.047 8.70508L13.003 2.88672H23.0401H33.0772L33.0333 8.70508ZM10.3048 10.0234C10.3136 11.7285 10.3399 13.5303 10.3751 14.0225C10.4366 15.0596 10.5333 15.0068 9.43466 14.5674C7.7999 13.9258 6.44638 12.6777 5.63779 11.0518C5.12802 10.0498 4.93466 9.25879 4.87314 8.00195L4.8204 6.92969H7.56259H10.296L10.3048 10.0234ZM41.2071 8.00195C41.1456 9.25879 40.9522 10.0498 40.4513 11.043C39.5899 12.748 38.1749 14.0225 36.3995 14.6729C36.0128 14.8135 35.6788 14.9277 35.67 14.9277C35.6612 14.9277 35.6788 14.541 35.7052 14.0752C35.7403 13.6006 35.7667 11.7988 35.7755 10.0674L35.7843 6.92969H38.5177H41.2599L41.2071 8.00195ZM24.5343 27.9355V29.8691H23.0401H21.546V27.9355V26.002H23.0401H24.5343V27.9355ZM27.0128 32.7695C27.7862 33.0068 28.5772 33.5342 28.9991 34.1055C29.3155 34.5361 29.6319 35.0635 29.6319 35.1865C29.6319 35.2129 26.67 35.2305 23.0401 35.2305C19.419 35.2305 16.4483 35.2129 16.4483 35.1865C16.4483 35.0547 16.8263 34.4219 17.1339 34.0352C17.5558 33.499 18.2237 33.0596 18.9972 32.7959C19.5509 32.6025 19.6827 32.6025 23.005 32.5938C26.1954 32.5938 26.4942 32.6025 27.0128 32.7695ZM33.2354 40.2842V42.6133H23.0401H12.8448V40.2842V37.9551H23.0401H33.2354V40.2842Z" fill="#B2AAAA"/>
<path d="M22.2843 5.4707C22.1085 5.5498 21.669 6.0332 21.0011 6.90332L19.9815 8.21289L18.5489 8.72266C17.7579 9.00391 17.0196 9.28516 16.9054 9.35547C16.5626 9.5752 16.3604 10.0059 16.3604 10.5156C16.3604 10.9551 16.4044 11.0342 17.2833 12.335L18.2149 13.7061L18.2765 15.4023C18.338 16.9756 18.3643 17.1074 18.5577 17.3799C18.7511 17.6611 19.3224 17.9951 19.6124 18.0039C19.6827 18.0039 20.4561 17.8018 21.3351 17.5557L22.9259 17.1074L24.4815 17.5645C26.1427 18.0479 26.3536 18.0654 26.8809 17.7402C27.3995 17.4238 27.4698 17.1777 27.5226 15.3672L27.5665 13.7412L28.3575 12.5811C28.797 11.9395 29.2188 11.2891 29.2979 11.1309C29.588 10.5947 29.4649 9.83887 29.0343 9.45215C28.9376 9.36426 28.1729 9.04785 27.338 8.74902L25.8175 8.2041L24.8243 6.92969C24.2442 6.19141 23.7169 5.59375 23.5499 5.49707C23.2071 5.32129 22.6622 5.30371 22.2843 5.4707ZM23.4708 9.67188C24.1036 10.4805 24.1739 10.5244 25.1759 10.8848C25.5977 11.043 25.9405 11.1836 25.9405 11.21C25.9405 11.2363 25.7647 11.5 25.5538 11.7988C24.9649 12.625 24.9122 12.7832 24.8419 13.8027C24.8067 14.4268 24.7452 14.752 24.6837 14.752C24.6222 14.752 24.2618 14.6553 23.8751 14.5322C22.9962 14.2598 22.838 14.2598 21.88 14.5498C21.4581 14.6729 21.0802 14.752 21.045 14.7256C21.0186 14.6904 20.9659 14.2334 20.9308 13.7061L20.878 12.748L20.3683 11.9746C19.9727 11.3857 19.8849 11.1924 19.9815 11.1396C20.0431 11.0957 20.4034 10.9639 20.7726 10.8408C21.5987 10.5596 21.7393 10.4541 22.381 9.61035C22.6622 9.25 22.8995 8.95996 22.9083 8.96875C22.9259 8.98633 23.172 9.30273 23.4708 9.67188Z" fill="#B2AAAA"/>
</g>
<defs>
<clipPath id="clip0_7_166">
<rect width="45" height="45" fill="white" transform="translate(0.540131 0.25)"/>
</clipPath>
</defs>
</svg>
