<svg width="46" height="46" viewBox="0 0 46 46" fill="none" xmlns="http://www.w3.org/2000/svg">
<g clip-path="url(#clip0_7_187)">
<path d="M14.1621 3.1943C8.27344 5.33883 5.97949 6.21774 5.68945 6.42868C5.19727 6.78024 4.74902 7.41305 4.57324 8.01071C4.34473 8.77536 4.39746 9.31149 4.82812 10.5507L5.21484 11.6757H4.97754C4.57324 11.6757 3.87012 11.9043 3.21973 12.247C2.14746 12.8095 1.26855 13.917 0.890625 15.1826C0.767578 15.6132 0.75 16.9404 0.75 28.4716C0.75 40.9521 0.758789 41.2949 0.925781 41.831C1.41797 43.4218 2.73633 44.6875 4.35352 45.1181C4.7666 45.2324 7.27148 45.25 21.9229 45.25C40.793 45.25 39.4746 45.2851 40.6084 44.6963C41.2852 44.3359 42.1992 43.4218 42.5596 42.7363C43.0869 41.7519 43.1133 41.497 43.1133 38.0781V34.9843L43.4033 34.9228C44.2295 34.747 45.0293 34.0879 45.4951 33.209L45.7061 32.8134L45.7324 28.498C45.7588 24.2353 45.75 24.1738 45.5654 23.664C45.3018 22.9609 44.5723 22.2314 43.8779 21.9765C43.5967 21.8711 43.3154 21.7832 43.2451 21.7832C43.1309 21.7832 43.1133 21.3525 43.1133 18.7246C43.1133 16.167 43.0869 15.5869 42.9727 15.1826C42.7266 14.3476 42.3223 13.6797 41.7158 13.082C40.8809 12.247 40.0459 11.8252 38.9824 11.6933L38.499 11.6318L38.4551 9.56637C38.4111 7.59762 38.4023 7.48336 38.1914 7.06149C37.8838 6.41989 37.1895 5.7695 36.5654 5.51461C36.0381 5.30368 36.0293 5.30368 31.4766 5.25973L26.9238 5.21579L26.335 3.58981C25.7109 1.85836 25.5439 1.51559 25.0781 1.06735C24.5332 0.548794 23.918 0.3027 23.0303 0.276333L22.2393 0.241177L14.1621 3.1943ZM23.3027 3.28219C23.373 3.45797 23.5576 3.96774 23.7246 4.41598L24.0146 5.24215L23.3994 5.30368C22.4854 5.39157 21.8877 5.64645 21.3604 6.17379C21.1143 6.41989 20.8154 6.8154 20.7012 7.06149C20.4902 7.48336 20.4814 7.58004 20.4551 9.54879L20.4287 11.5879L14.2676 11.5703L8.10645 11.5439L7.63184 10.2783C7.37695 9.58395 7.16602 8.96872 7.16602 8.90719C7.16602 8.84567 7.22754 8.7402 7.30664 8.67868C7.51758 8.51168 22.6348 2.99215 22.9248 2.98336C23.127 2.97458 23.1973 3.02731 23.3027 3.28219ZM35.6074 8.10739C35.7568 8.22165 35.7744 8.37106 35.8008 9.90915L35.8271 11.5879H29.4463H23.0654L23.0918 9.90915C23.1182 8.37106 23.1357 8.22165 23.2852 8.10739C23.54 7.92282 35.3525 7.92282 35.6074 8.10739ZM39.0791 14.497C39.5537 14.7168 39.9932 15.1474 40.2217 15.6132C40.4238 16.0175 40.4326 16.0966 40.459 18.8476L40.4941 21.6777L37.5586 21.7129C34.9219 21.748 34.5615 21.7744 33.9463 21.9414C32.083 22.4511 30.5361 23.7256 29.71 25.4306C29.1562 26.582 29.0244 27.2412 29.0684 28.6123C29.1387 30.5195 29.6572 31.7148 30.9844 33.0332C31.8457 33.8857 32.4258 34.2548 33.5068 34.6504L34.2803 34.9228L37.3828 34.9492L40.4854 34.9756L40.459 37.8935C40.4326 40.4599 40.415 40.8554 40.2744 41.1543C40.0195 41.7256 39.7207 42.0507 39.2285 42.2968L38.7715 42.5254H21.9316H5.0918L4.63477 42.2968C4.14258 42.0507 3.84375 41.7256 3.58887 41.1543C3.43945 40.8291 3.43066 40.0996 3.4043 28.8144C3.38672 21.2558 3.41309 16.6064 3.46582 16.2549C3.60645 15.3408 4.19531 14.664 5.03906 14.4355C5.36426 14.3476 8.89746 14.33 22.1074 14.3388C37.2686 14.3564 38.7891 14.3652 39.0791 14.497ZM42.9023 24.5429C43.0605 24.666 43.0693 24.8242 43.0957 28.2431C43.1133 31.3632 43.1045 31.8554 42.9814 32.0312L42.8496 32.2422H38.9033C35.1943 32.2422 34.9395 32.2334 34.4561 32.0664C33.3838 31.6972 32.6104 31.0029 32.1006 29.9658C31.8369 29.4121 31.8193 29.333 31.8193 28.3662C31.8193 27.373 31.8281 27.3379 32.1445 26.6963C32.6982 25.58 33.8408 24.7099 35.001 24.5078C35.2295 24.4726 37.0664 24.4375 39.0791 24.4287C42.1025 24.4199 42.7617 24.4375 42.9023 24.5429Z" fill="#B2AAAA"/>
<path d="M35.1592 27.1006C34.9658 27.1709 34.7988 27.2324 34.79 27.2324C34.7812 27.2324 34.667 27.3818 34.5439 27.5576C34.3682 27.8213 34.3242 27.9971 34.3242 28.4014C34.3242 28.8672 34.3506 28.9375 34.667 29.2803C35.0098 29.6494 35.0186 29.6494 35.6426 29.6494C36.2666 29.6494 36.2754 29.6494 36.6182 29.2803C36.9346 28.9375 36.9609 28.8672 36.9609 28.4102C36.9609 27.8389 36.7852 27.4785 36.3896 27.2324C36.0029 26.9951 35.5635 26.9512 35.1592 27.1006Z" fill="#B2AAAA"/>
</g>
<defs>
<clipPath id="clip0_7_187">
<rect width="45" height="45" fill="white" transform="translate(0.75 0.25)"/>
</clipPath>
</defs>
</svg>
