<svg width="46" height="46" viewBox="0 0 46 46" fill="none" xmlns="http://www.w3.org/2000/svg">
<g clip-path="url(#clip0_7_170)">
<path d="M4.60947 0.425808C3.43173 0.847683 2.52646 1.76175 2.11337 2.95706C1.95517 3.43167 1.94638 3.94143 1.94638 21.3877C1.94638 38.834 1.95517 39.3438 2.11337 39.8184C2.52646 41.0313 3.44052 41.9453 4.64462 42.3584C5.11923 42.5166 5.46201 42.5254 15.7979 42.5254H26.4503L26.837 42.8418C28.0411 43.8526 29.4034 44.5381 31.1261 44.9951C31.9786 45.2237 34.1759 45.3203 35.1515 45.1709C39.4405 44.4942 42.8155 41.3828 43.8878 37.1201C44.1163 36.2061 44.2042 34.0528 44.046 33.0244C43.7911 31.2403 42.9737 29.4033 41.7696 27.9004L41.4972 27.5576V15.4991C41.4972 3.78323 41.4884 3.43167 41.3302 2.94827C40.9171 1.74417 40.003 0.830105 38.7901 0.417019C38.3155 0.258816 37.8321 0.250027 21.6866 0.258816C5.72568 0.258816 5.04892 0.267605 4.60947 0.425808ZM38.1573 3.12405C38.3243 3.22952 38.544 3.44925 38.6407 3.60745C38.8165 3.8887 38.8165 4.07327 38.8429 14.6377C38.8517 20.5528 38.8517 25.3867 38.8341 25.3867C38.8165 25.3867 38.544 25.2637 38.2364 25.1055C37.9288 24.9473 37.3575 24.7188 36.9708 24.5869L36.2677 24.3496L36.2237 21.9502C36.1798 19.3223 36.171 19.3135 35.6349 18.9619C35.4063 18.8125 35.1602 18.7949 32.2686 18.7949C29.3595 18.7949 29.131 18.8037 28.8936 18.9619C28.7618 19.0498 28.5685 19.2432 28.4806 19.375C28.3224 19.6123 28.3136 19.8408 28.3136 22.5303L28.3048 25.4307L27.628 25.8701C26.7579 26.4239 25.3956 27.7862 24.8419 28.6563L24.4024 29.333L21.502 29.3418C18.8126 29.3418 18.5841 29.3506 18.3468 29.5088C18.2149 29.5967 18.0216 29.7901 17.9337 29.9219C17.7755 30.1592 17.7667 30.3877 17.7667 33.2969C17.7667 37.5332 17.4942 37.1905 20.9132 37.252L23.3126 37.2959L23.5675 38.0606C23.7081 38.4824 23.9454 39.0713 24.0948 39.3614L24.3673 39.8887L14.9806 39.8711C5.76962 39.8448 5.58505 39.8448 5.3038 39.669C5.1456 39.5723 4.92587 39.3526 4.8204 39.1856L4.62704 38.878V21.3877V3.89749L4.8204 3.58987C5.03134 3.2471 5.28622 3.06253 5.68173 2.96585C5.83115 2.93069 13.1261 2.91311 21.8976 2.91311L37.8497 2.93069L38.1573 3.12405ZM33.587 22.75V24.0684H32.2686H30.9503V22.75V21.4317H32.2686H33.587V22.75ZM35.6964 27.0479C38.3067 27.8037 40.4073 29.9131 41.1632 32.5498C41.339 33.1563 41.3653 33.4463 41.3565 34.7032C41.3565 36.0918 41.339 36.1885 41.0753 36.9883C40.2227 39.5547 38.1837 41.541 35.6788 42.2705C34.756 42.5342 33.0685 42.5957 32.0841 42.4024C30.5372 42.086 29.3067 41.4092 28.0938 40.1963C27.0743 39.1768 26.5382 38.3155 26.1075 36.9883C25.7472 35.8897 25.6593 34.2725 25.8878 33.1211C26.5206 30.0274 28.8761 27.6192 31.961 26.9336C32.8487 26.7315 34.8087 26.793 35.6964 27.0479ZM23.0401 33.2969V34.6153H21.7218H20.4034V33.2969V31.9785H21.7218H23.0401V33.2969Z" fill="#B2AAAA"/>
<path d="M7.7999 5.69043C7.66806 5.77832 7.4747 5.97168 7.38681 6.10352C7.22861 6.34082 7.21982 6.5957 7.21982 10.8408C7.21982 15.0859 7.22861 15.3408 7.38681 15.5781C7.4747 15.71 7.66806 15.9033 7.7999 15.9912C8.04599 16.1494 8.47665 16.1582 21.7218 16.1582C34.9669 16.1582 35.3976 16.1494 35.6436 15.9912C35.7755 15.9033 35.9688 15.71 36.0567 15.5781C36.2149 15.3408 36.2237 15.0859 36.2237 10.8408C36.2237 6.5957 36.2149 6.34082 36.0567 6.10352C35.9688 5.97168 35.7755 5.77832 35.6436 5.69043C35.3976 5.53223 34.9669 5.52344 21.7218 5.52344C8.47665 5.52344 8.04599 5.53223 7.7999 5.69043ZM33.587 10.8408V13.5215H21.7218H9.85654V10.8408V8.16016H21.7218H33.587V10.8408Z" fill="#B2AAAA"/>
<path d="M7.7999 18.9619C7.66806 19.0498 7.4747 19.2432 7.38681 19.375C7.22861 19.6123 7.21982 19.8408 7.21982 22.75C7.21982 25.6592 7.22861 25.8877 7.38681 26.125C7.4747 26.2568 7.66806 26.4502 7.7999 26.5381C8.0372 26.6963 8.26572 26.7051 11.1749 26.7051C14.0841 26.7051 14.3126 26.6963 14.5499 26.5381C14.6817 26.4502 14.8751 26.2568 14.963 26.125C15.1212 25.8877 15.13 25.6592 15.13 22.75C15.13 19.8408 15.1212 19.6123 14.963 19.375C14.8751 19.2432 14.6817 19.0498 14.5499 18.9619C14.3126 18.8037 14.0841 18.7949 11.1749 18.7949C8.26572 18.7949 8.0372 18.8037 7.7999 18.9619ZM12.4933 22.75V24.0684H11.1749H9.85654V22.75V21.4316H11.1749H12.4933V22.75Z" fill="#B2AAAA"/>
<path d="M18.3468 18.9619C18.2149 19.0498 18.0216 19.2432 17.9337 19.375C17.7755 19.6123 17.7667 19.8408 17.7667 22.75C17.7667 25.6592 17.7755 25.8877 17.9337 26.125C18.0216 26.2568 18.2149 26.4502 18.3468 26.5381C18.5841 26.6963 18.8126 26.7051 21.7218 26.7051C24.631 26.7051 24.8595 26.6963 25.0968 26.5381C25.2286 26.4502 25.422 26.2568 25.5099 26.125C25.6681 25.8877 25.6768 25.6592 25.6768 22.75C25.6768 19.8408 25.6681 19.6123 25.5099 19.375C25.422 19.2432 25.2286 19.0498 25.0968 18.9619C24.8595 18.8037 24.631 18.7949 21.7218 18.7949C18.8126 18.7949 18.5841 18.8037 18.3468 18.9619ZM23.0401 22.75V24.0684H21.7218H20.4034V22.75V21.4316H21.7218H23.0401V22.75Z" fill="#B2AAAA"/>
<path d="M7.7999 29.5088C7.66806 29.5967 7.4747 29.79 7.38681 29.9219C7.22861 30.1592 7.21982 30.3877 7.21982 33.2969C7.21982 36.2061 7.22861 36.4346 7.38681 36.6719C7.4747 36.8037 7.66806 36.9971 7.7999 37.085C8.0372 37.2432 8.26572 37.252 11.1749 37.252C14.0841 37.252 14.3126 37.2432 14.5499 37.085C14.6817 36.9971 14.8751 36.8037 14.963 36.6719C15.1212 36.4346 15.13 36.2061 15.13 33.2969C15.13 30.3877 15.1212 30.1592 14.963 29.9219C14.8751 29.79 14.6817 29.5967 14.5499 29.5088C14.3126 29.3506 14.0841 29.3418 11.1749 29.3418C8.26572 29.3418 8.0372 29.3506 7.7999 29.5088ZM12.4933 33.2969V34.6152H11.1749H9.85654V33.2969V31.9785H11.1749H12.4933V33.2969Z" fill="#B2AAAA"/>
<path d="M32.8487 30.8271C32.295 31.1963 32.2686 31.3105 32.2686 33.2969C32.2686 35.2832 32.295 35.3975 32.8487 35.7666C33.0772 35.916 33.2882 35.9336 34.9054 35.9336C36.8917 35.9336 37.006 35.9072 37.3751 35.3535C37.6036 35.0107 37.6036 34.2197 37.3751 33.877C37.0499 33.3936 36.795 33.2969 35.8106 33.2969H34.9054V32.3916C34.9054 31.6621 34.8702 31.4512 34.7384 31.2402C34.4659 30.8359 34.1319 30.6602 33.587 30.6602C33.2618 30.6602 33.0245 30.7129 32.8487 30.8271Z" fill="#B2AAAA"/>
</g>
<defs>
<clipPath id="clip0_7_170">
<rect width="45" height="45" fill="white" transform="translate(0.540131 0.25)"/>
</clipPath>
</defs>
</svg>
