<svg width="156" height="46" viewBox="0 0 156 46" fill="none" xmlns="http://www.w3.org/2000/svg">
<g clip-path="url(#clip0_1_4)">
<path d="M52.5054 11.8631H58.6274L68.3866 35.1962H61.5768L59.9058 31.0574H51.0649L49.4264 35.1962H42.7461L52.5054 11.8631ZM58.0692 26.0631L55.516 19.4782L52.9303 26.0631H58.0692Z" fill="#3F3536"/>
<path d="M68.5163 23.6134C68.5163 16.861 73.6588 11.5646 80.5983 11.5646C85.2798 11.5646 88.1932 13.6176 90.2242 16.4642L85.5751 20.1043C84.2643 18.448 82.7266 17.4252 80.5334 17.4252C77.3248 17.4252 75.0668 20.1735 75.0668 23.6134C75.0668 27.0897 77.3248 29.8015 80.5334 29.8015C82.9246 29.8015 84.3327 28.6767 85.7084 26.9877L90.4907 30.4313C88.33 33.4416 85.4167 35.6621 80.339 35.6621C73.7848 35.6621 68.5163 30.5951 68.5163 23.6134Z" fill="#3F3536"/>
<path d="M98.8023 17.6545H91.9276V12.0269H112.033V17.6545H105.155V35.1962H98.8023V17.6545Z" fill="#3F3536"/>
<path d="M114.81 12.0269H133.244V17.4871H121.097V20.9961H132.099V26.0631H121.097V29.736H133.41V35.1962H114.81V12.0269Z" fill="#3F3536"/>
<path d="M136.651 12.0269H146.475C152.269 12.0269 156.004 15.0373 156.004 20.2353C156.004 25.6955 151.844 28.5748 146.147 28.5748H143.003V35.1962H136.651V12.0269ZM146.014 23.5478C148.272 23.5478 149.648 22.3575 149.648 20.4683C149.648 18.4808 148.272 17.4215 145.981 17.4215H143.003V23.5442H146.014V23.5478Z" fill="#3F3536"/>
<path d="M151.679 9.61352H47.2296C44.8528 9.61352 42.9082 7.64786 42.9082 5.2454V4.6011C42.9082 2.19863 44.8528 0.232971 47.2296 0.232971H151.679C154.055 0.232971 156 2.19863 156 4.6011V5.2454C156 7.64786 154.055 9.61352 151.679 9.61352Z" fill="#961E14"/>
<path d="M32.6916 0L22.6767 20.8796H30.3941L32.6916 16.1075V35.1962H39.3682V0H32.6916Z" fill="#961E14"/>
<path d="M6.97911 0H0.302505V35.1962H6.97911V16.4496L16.1045 35.1962H23.7175L6.97911 0Z" fill="#3F3536"/>
<path d="M79.2406 5.19444C79.2406 6.15178 78.4735 6.92713 77.5264 6.92713C76.5793 6.92713 75.8123 6.15178 75.8123 5.19444C75.8123 4.23709 76.5793 3.46175 77.5264 3.46175C78.4735 3.46175 79.2406 4.23709 79.2406 5.19444Z" fill="white"/>
<path d="M113.549 6.92713C114.496 6.92713 115.263 6.15137 115.263 5.19444C115.263 4.2375 114.496 3.46175 113.549 3.46175C112.602 3.46175 111.835 4.2375 111.835 5.19444C111.835 6.15137 112.602 6.92713 113.549 6.92713Z" fill="white"/>
<path d="M47.669 2.20227H48.7853L51.1405 7.95728H49.8765L49.3723 6.67596H47.0496L46.5454 7.95728H45.3138L47.669 2.20227ZM48.9438 5.56573L48.2127 3.71291L47.4817 5.56573H48.9438Z" fill="white"/>
<path d="M51.9868 2.24231H53.1968V4.73942L55.4259 2.24231H56.888L54.6517 4.66662L56.9924 7.95727H55.5412L53.8378 5.52568L53.2004 6.21002V7.95727H51.9904V2.24231H51.9868Z" fill="white"/>
<path d="M57.7163 2.24231H59.9634C61.2743 2.24231 62.0665 3.05041 62.0665 4.23345C62.0665 5.5548 61.0762 6.24278 59.8446 6.24278H58.9263V7.95727H57.7163V2.24231ZM59.8842 5.12527C60.4892 5.12527 60.8421 4.75034 60.8421 4.24437C60.8421 3.68015 60.464 3.37802 59.859 3.37802H58.9263V5.12527H59.8842Z" fill="white"/>
<path d="M67.6952 7.95727H66.5032V4.20797L64.1012 7.95727H62.9632V2.24231H64.1552V5.99162L66.5752 2.24231H67.6988V7.95727H67.6952Z" fill="white"/>
<path d="M73.6696 2.24231V7.95727H72.4596V3.37802H70.875V3.81119C70.875 7.17465 70.3493 8.03372 69.0924 8.03372C68.8944 8.03372 68.6063 8.00096 68.455 7.96091L68.5343 6.92348C68.5883 6.93076 68.6459 6.93804 68.7215 6.93804C69.3733 6.93804 69.7407 6.50487 69.7407 3.42898V2.24231H73.6696Z" fill="white"/>
<path d="M82.0531 2.24231H83.2631V4.73942L85.4923 2.24231H86.9544L84.718 4.66662L87.0588 7.95727H85.6075L83.9041 5.52568L83.2667 6.21002V7.95727H82.0567V2.24231H82.0531Z" fill="white"/>
<path d="M87.7826 2.24231H90.3359C90.9625 2.24231 91.4594 2.42067 91.7727 2.74828C92.0248 3.01037 92.1509 3.32706 92.1509 3.73475C92.1509 4.37905 91.8196 4.73942 91.427 4.96875C92.0644 5.22355 92.457 5.60577 92.457 6.38839C92.457 7.4331 91.6395 7.95727 90.4007 7.95727H87.7862V2.24231H87.7826ZM90.0766 4.55378C90.6096 4.55378 90.9481 4.37541 90.9481 3.93496C90.9481 3.56003 90.6636 3.34526 90.1558 3.34526H88.9638V4.55378H90.0766ZM90.3971 6.85796C90.9301 6.85796 91.2542 6.6614 91.2542 6.22094C91.2542 5.83873 90.9805 5.60213 90.3575 5.60213H88.9602V6.85796H90.3971Z" fill="white"/>
<path d="M95.1795 2.20227H96.2958L98.651 7.95728H97.387L96.8828 6.67596H94.5565L94.0523 7.95728H92.8207L95.1795 2.20227ZM96.4507 5.56573L95.7196 3.71291L94.9886 5.56573H96.4507Z" fill="white"/>
<path d="M99.4937 2.24231H101.741C103.052 2.24231 103.844 3.05041 103.844 4.23345C103.844 5.5548 102.854 6.24278 101.622 6.24278H100.704V7.95727H99.4937V2.24231ZM101.662 5.12527C102.267 5.12527 102.62 4.75034 102.62 4.24437C102.62 3.68015 102.241 3.37802 101.636 3.37802H100.704V5.12527H101.662Z" fill="white"/>
<path d="M108.814 7.95727H104.737V2.24231H105.947V6.82156H108.115V2.24231H109.325V6.82156H109.977L109.818 9.14759H108.814V7.95727Z" fill="white"/>
<path d="M117.889 2.24231H119.192L120.636 4.65934L122.08 2.24231H123.384V7.95727H122.181V4.22617L120.633 6.66868H120.6L119.07 4.25165V7.95727H117.885V2.24231H117.889Z" fill="white"/>
<path d="M124.702 2.24231H126.949C128.26 2.24231 129.052 3.05041 129.052 4.23345C129.052 5.5548 128.062 6.24278 126.83 6.24278H125.912V7.95727H124.702V2.24231ZM126.87 5.12527C127.475 5.12527 127.828 4.75034 127.828 4.24437C127.828 3.68015 127.45 3.37802 126.845 3.37802H125.912V5.12527H126.87Z" fill="white"/>
<path d="M131.281 2.20227H132.398L134.753 7.95728H133.489L132.985 6.67596H130.658L130.154 7.95728H128.923L131.281 2.20227ZM132.553 5.56573L131.822 3.71291L131.091 5.56573H132.553Z" fill="white"/>
<path d="M135.596 2.24231H136.899L138.343 4.65934L139.787 2.24231H141.091V7.95727H139.888V4.22617L138.34 6.66868H138.307L136.777 4.25165V7.95727H135.592V2.24231H135.596Z" fill="white"/>
<path d="M142.168 5.09979C142.168 3.47631 143.399 2.14403 145.096 2.14403C146.792 2.14403 148.009 3.45811 148.009 5.09979C148.009 6.72328 146.777 8.05556 145.081 8.05556C143.385 8.05556 142.168 6.74148 142.168 5.09979ZM146.745 5.09979C146.745 4.1206 146.054 3.30522 145.081 3.30522C144.109 3.30522 143.432 4.10604 143.432 5.09979C143.432 6.07898 144.123 6.89436 145.096 6.89436C146.068 6.898 146.745 6.09718 146.745 5.09979Z" fill="white"/>
<path d="M149.082 2.24231H151.329C152.64 2.24231 153.432 3.05041 153.432 4.23345C153.432 5.5548 152.442 6.24278 151.21 6.24278H150.292V7.95727H149.082V2.24231ZM151.25 5.12527C151.855 5.12527 152.208 4.75034 152.208 4.24437C152.208 3.68015 151.83 3.37802 151.225 3.37802H150.292V5.12527H151.25Z" fill="white"/>
<path d="M0 41.53H0.813869L2.13551 43.6085L3.45714 41.53H4.27101V45.9236H3.50756V42.7712L2.13551 44.8425H2.1103L0.749048 42.7821V45.9199H0V41.53Z" fill="#3F3536"/>
<path d="M6.9287 41.4972H7.63813L9.55036 45.9236H8.7437L8.30435 44.8643H6.24807L5.80152 45.9236H5.02007L6.9287 41.4972ZM8.01986 44.18L7.26721 42.4218L6.52176 44.18H8.01986Z" fill="#3F3536"/>
<path d="M9.84926 43.7286C9.84926 42.48 10.7748 41.4572 12.0892 41.4572C12.8887 41.4572 13.3748 41.7411 13.789 42.1415L13.2992 42.713C12.9499 42.3854 12.579 42.167 12.082 42.167C11.2501 42.167 10.6487 42.8586 10.6487 43.7286C10.6487 44.5876 11.2501 45.2902 12.082 45.2902C12.615 45.2902 12.9571 45.0718 13.3316 44.7187L13.8214 45.221C13.3676 45.6979 12.8707 46 12.0568 46C10.7964 46 9.84926 45.0026 9.84926 43.7286Z" fill="#3F3536"/>
<path d="M15.694 42.2471H14.3147V41.53H17.8403V42.2471H16.461V45.9236H15.6904V42.2471H15.694Z" fill="#3F3536"/>
<path d="M18.647 41.53H21.87V42.2216H19.4104V43.3646H21.5891V44.0562H19.4104V45.2356H21.8988V45.9272H18.6434V41.53H18.647Z" fill="#3F3536"/>
<path d="M22.8064 41.53H24.5205C25.5325 41.53 26.1735 42.1124 26.1735 43.0115C26.1735 43.9979 25.392 44.5112 24.4341 44.5112H23.5698V45.9236H22.8064V41.53ZM24.4557 43.8159C25.0319 43.8159 25.392 43.4883 25.392 43.0188C25.392 42.5055 25.0247 42.2325 24.4557 42.2325H23.5662V43.8159H24.4557Z" fill="#3F3536"/>
<path d="M28.0569 41.4972H28.7663L30.6786 45.9236H29.8719L29.4325 44.8643H27.3763L26.9297 45.9236H26.1447L28.0569 41.4972ZM29.1516 44.18L28.399 42.4218L27.6536 44.18H29.1516Z" fill="#3F3536"/>
<path d="M33.2102 41.53H33.9376L35.8859 44.544V41.53H36.6637V45.9236H36.0011L33.988 42.8368V45.9236H33.2102V41.53ZM37.0887 43.2736C37.0887 42.7603 37.474 42.3453 37.9998 42.3453C38.5219 42.3453 38.9073 42.753 38.9073 43.2663C38.9073 43.7795 38.5147 44.1945 37.9962 44.1945C37.4704 44.1982 37.0887 43.7905 37.0887 43.2736ZM37.1823 44.5694H38.8028V45.0463H37.1823V44.5694ZM38.4319 43.2736C38.4319 42.9969 38.2519 42.7712 37.9962 42.7712C37.7297 42.7712 37.5604 42.9896 37.5604 43.2736C37.5604 43.5429 37.7405 43.7759 37.9998 43.7759C38.2627 43.7759 38.4319 43.5502 38.4319 43.2736Z" fill="#3F3536"/>
<path d="M42.2168 42.2835L41.4353 42.5019L41.2733 41.8758L42.44 41.5008H42.973V45.9272H42.2168V42.2835Z" fill="#3F3536"/>
<path d="M45.9908 41.53H47.9391C48.436 41.53 48.8286 41.6683 49.077 41.9194C49.2679 42.1124 49.3687 42.3526 49.3687 42.6584C49.3687 43.1862 49.0698 43.4665 48.7493 43.6376C49.2571 43.8123 49.6136 44.1071 49.6136 44.7187C49.6136 45.5049 48.9726 45.9236 48.0039 45.9236H45.9908V41.53ZM47.7842 43.3828C48.274 43.3828 48.6053 43.1898 48.6053 42.7749C48.6053 42.4291 48.3316 42.2179 47.8418 42.2179H46.7435V43.3864H47.7842V43.3828ZM48.0075 45.2392C48.5297 45.2392 48.8466 45.0317 48.8466 44.624C48.8466 44.2528 48.5549 44.0343 47.9535 44.0343H46.7435V45.2392H48.0075Z" fill="#3F3536"/>
<path d="M52.3325 41.53H53.096V43.7395L55.163 41.53H56.0994L54.2916 43.4192L56.1786 45.9236H55.2531L53.7694 43.947L53.0924 44.6495V45.9236H52.3289V41.53H52.3325Z" fill="#3F3536"/>
<path d="M56.834 41.53H58.5482C59.5601 41.53 60.2011 42.1124 60.2011 43.0115C60.2011 43.9979 59.4197 44.5112 58.4617 44.5112H57.5975V45.9236H56.834V41.53ZM58.487 43.8159C59.0632 43.8159 59.4233 43.4883 59.4233 43.0188C59.4233 42.5055 59.0559 42.2325 58.487 42.2325H57.5975V43.8159H58.487Z" fill="#3F3536"/>
<path d="M60.979 41.53H61.7352V43.1134H62.7364C63.7123 43.1134 64.3677 43.6012 64.3677 44.4894C64.3677 45.3739 63.7339 45.9272 62.7292 45.9272H60.979V41.53ZM62.7183 45.2319C63.2837 45.2319 63.6114 44.9735 63.6114 44.4784C63.6114 44.0271 63.2837 43.7832 62.7039 43.7832H61.7352V45.2319H62.7183ZM64.8863 41.53H65.6425V45.9236H64.8863V41.53Z" fill="#3F3536"/>
<path d="M66.7589 41.53H67.5728L68.8944 43.6085L70.216 41.53H71.0299V45.9236H70.2664V42.7712L68.8944 44.8425H68.8692L67.5079 42.7821V45.9199H66.7553V41.53H66.7589Z" fill="#3F3536"/>
<path d="M72.049 45.7743L72.3407 45.1955C72.5136 45.2975 72.6828 45.3339 72.8737 45.3339C73.0646 45.3339 73.3382 45.2137 73.5579 44.857L71.7465 41.53H72.6036L73.9577 44.0853L75.1496 41.53H75.9743L74.2782 44.9626C73.9108 45.7088 73.4643 45.9927 72.8989 45.9927C72.564 45.9927 72.3011 45.9126 72.049 45.7743Z" fill="#3F3536"/>
<path d="M78.5528 41.53H82.1V45.9236H81.3365V42.2252H79.3198V45.9236H78.5564V41.53H78.5528Z" fill="#3F3536"/>
<path d="M83.0219 43.7286C83.0219 42.4909 83.9654 41.4572 85.3014 41.4572C86.6374 41.4572 87.5666 42.48 87.5666 43.7286C87.5666 44.9662 86.623 46 85.287 46C83.951 46 83.0219 44.9771 83.0219 43.7286ZM86.7671 43.7286C86.7671 42.8732 86.1513 42.167 85.2906 42.167C84.4299 42.167 83.8249 42.8622 83.8249 43.7286C83.8249 44.5804 84.4407 45.2902 85.3014 45.2902C86.1657 45.2902 86.7671 44.5913 86.7671 43.7286Z" fill="#3F3536"/>
<path d="M90.1594 43.7286C90.1594 42.4909 91.1029 41.4572 92.439 41.4572C93.775 41.4572 94.7041 42.48 94.7041 43.7286C94.7041 44.9662 93.7606 46 92.4246 46C91.0921 46 90.1594 44.9771 90.1594 43.7286ZM93.9047 43.7286C93.9047 42.8732 93.2889 42.167 92.4282 42.167C91.5639 42.167 90.9625 42.8622 90.9625 43.7286C90.9625 44.5804 91.5783 45.2902 92.439 45.2902C93.3033 45.2902 93.9047 44.5913 93.9047 43.7286Z" fill="#3F3536"/>
<path d="M95.6296 41.53H98.8707V42.2252H96.3859V43.2372H97.5959C98.5538 43.2372 99.1732 43.7213 99.1732 44.5694C99.1732 45.4467 98.5538 45.9236 97.5599 45.9236H95.6296V41.53ZM97.3942 45.2319C98.0532 45.2319 98.4133 45.0754 98.4133 44.5367C98.4133 44.1108 98.0964 43.8887 97.5311 43.8887H96.3895V45.2319H97.3942Z" fill="#3F3536"/>
<path d="M100.037 41.53H101.752C102.764 41.53 103.405 42.1124 103.405 43.0115C103.405 43.9979 102.623 44.5112 101.665 44.5112H100.801V45.9236H100.037V41.53ZM101.687 43.8159C102.263 43.8159 102.623 43.4883 102.623 43.0188C102.623 42.5055 102.256 42.2325 101.687 42.2325H100.797V43.8159H101.687Z" fill="#3F3536"/>
<path d="M105.288 41.4972H105.997L107.91 45.9236H107.103L106.664 44.8643H104.607L104.161 45.9236H103.379L105.288 41.4972ZM106.383 44.18L105.63 42.4218L104.885 44.18H106.383Z" fill="#3F3536"/>
<path d="M108.652 41.53H111.893V42.2252H109.408V43.2372H110.618C111.576 43.2372 112.195 43.7213 112.195 44.5694C112.195 45.4467 111.576 45.9236 110.582 45.9236H108.652V41.53ZM110.416 45.2319C111.075 45.2319 111.435 45.0754 111.435 44.5367C111.435 44.1108 111.118 43.8887 110.553 43.8887H109.411V45.2319H110.416Z" fill="#3F3536"/>
<path d="M112.869 43.7286C112.869 42.4909 113.812 41.4572 115.148 41.4572C116.484 41.4572 117.413 42.48 117.413 43.7286C117.413 44.9662 116.47 46 115.134 46C113.798 46 112.869 44.9771 112.869 43.7286ZM116.61 43.7286C116.61 42.8732 115.994 42.167 115.134 42.167C114.269 42.167 113.668 42.8622 113.668 43.7286C113.668 44.5804 114.284 45.2902 115.144 45.2902C116.009 45.2902 116.61 44.5913 116.61 43.7286Z" fill="#3F3536"/>
<path d="M119.095 42.2471H117.716V41.53H121.241V42.2471H119.862V45.9236H119.091V42.2471H119.095Z" fill="#3F3536"/>
<path d="M122.048 41.53H122.811V43.7395L124.879 41.53H125.815L124.007 43.4192L125.894 45.9236H124.969L123.485 43.947L122.808 44.6495V45.9236H122.044V41.53H122.048Z" fill="#3F3536"/>
<path d="M126.549 41.53H129.773V42.2216H127.313V43.3646H129.492V44.0562H127.313V45.2356H129.801V45.9272H126.546V41.53H126.549Z" fill="#3F3536"/>
<path d="M132.571 41.53H133.334V43.7395L135.401 41.53H136.337L134.53 43.4192L136.417 45.9236H135.491L134.008 43.947L133.33 44.6495V45.9236H132.567V41.53H132.571Z" fill="#3F3536"/>
<path d="M138.61 41.4972H139.319L141.232 45.9236H140.425L139.986 44.8643H137.926L137.479 45.9236H136.698L138.61 41.4972ZM139.705 44.18L138.952 42.4218L138.207 44.18H139.705Z" fill="#3F3536"/>
<path d="M141.973 41.53H142.787L144.109 43.6085L145.43 41.53H146.244V45.9236H145.481V42.7712L144.109 44.8425H144.084L142.722 42.7821V45.9199H141.97V41.53H141.973Z" fill="#3F3536"/>
<path d="M147.361 41.53H148.124V43.3573H150.198V41.53H150.962V45.9236H150.198V44.0707H148.124V45.9236H147.361V41.53Z" fill="#3F3536"/>
<path d="M152.932 44.2746C152.323 44.1035 151.895 43.6594 151.895 42.9314C151.895 42.076 152.51 41.53 153.515 41.53H155.445V45.9236H154.689V44.4056H153.728L152.647 45.9236H151.747L152.932 44.2746ZM154.689 43.7322V42.2252H153.576C153.004 42.2252 152.665 42.5019 152.665 42.9787C152.665 43.4374 153.018 43.7322 153.566 43.7322H154.689Z" fill="#3F3536"/>
</g>
<defs>
<clipPath id="clip0_1_4">
<rect width="156" height="46" fill="white"/>
</clipPath>
</defs>
</svg>
