<svg width="220" height="65" viewBox="0 0 220 65" fill="none" xmlns="http://www.w3.org/2000/svg">
<g clip-path="url(#clip0_37_848)">
<path d="M73.7574 16.5874H82.4078L96.1975 49.2121H86.5752L84.2142 43.4252H71.722L69.4067 49.2121H59.9676L73.7574 16.5874ZM81.6242 36.4422L78.0164 27.235L74.3629 36.4422H81.6242Z" fill="#B2AAAA"/>
<path d="M96.3807 33.0167C96.3807 23.5754 103.647 16.1699 113.453 16.1699C120.068 16.1699 124.184 19.0405 127.054 23.0206L120.485 28.1103C118.633 25.7945 116.46 24.3643 113.361 24.3643C108.827 24.3643 105.637 28.207 105.637 33.0167C105.637 37.8773 108.827 41.6691 113.361 41.6691C116.74 41.6691 118.729 40.0964 120.673 37.7348L127.431 42.5496C124.377 46.7588 120.261 49.8634 113.086 49.8634C103.83 49.8634 96.3807 42.7786 96.3807 33.0167Z" fill="#B2AAAA"/>
<path d="M139.175 24.685H129.461V16.8164H157.87V24.685H148.156V49.2121H139.18V24.685H139.175Z" fill="#B2AAAA"/>
<path d="M161.798 16.8164H187.846V24.4509H170.683V29.3573H186.228V36.4421H170.683V41.5776H188.08V49.2121H161.798V16.8164Z" fill="#B2AAAA"/>
<path d="M192.655 16.8164H206.536C214.723 16.8164 220 21.0256 220 28.2936C220 35.9281 214.123 39.954 206.073 39.954H201.631V49.2121H192.655V16.8164ZM205.89 32.9252C209.08 32.9252 211.024 31.2609 211.024 28.6193C211.024 25.8404 209.08 24.3593 205.844 24.3593H201.636V32.9201H205.89V32.9252Z" fill="#B2AAAA"/>
<path d="M213.894 13.4417H66.3079C62.9495 13.4417 60.2017 10.6933 60.2017 7.33414V6.43327C60.2017 3.0741 62.9495 0.325684 66.3079 0.325684H213.894C217.252 0.325684 220 3.0741 220 6.43327V7.33414C220 10.6933 217.252 13.4417 213.894 13.4417Z" fill="#961E14"/>
<path d="M45.7606 0L31.6096 29.1943H42.5193L45.7606 22.5217V49.2119H55.1946V0H45.7606Z" fill="#961E14"/>
<path d="M9.43402 0H0V49.2119H9.43402V23.0002L22.3231 49.2119H33.0852L9.43402 0Z" fill="#B2AAAA"/>
<path d="M111.539 7.26301C111.539 8.60159 110.455 9.68568 109.117 9.68568C107.779 9.68568 106.695 8.60159 106.695 7.26301C106.695 5.92443 107.779 4.84033 109.117 4.84033C110.455 4.84033 111.539 5.92443 111.539 7.26301Z" fill="white"/>
<path d="M160.017 9.68568C161.355 9.68568 162.439 8.60102 162.439 7.26301C162.439 5.925 161.355 4.84033 160.017 4.84033C158.679 4.84033 157.595 5.925 157.595 7.26301C157.595 8.60102 158.679 9.68568 160.017 9.68568Z" fill="white"/>
<path d="M66.9286 3.07959H68.5061L71.8339 11.1263H70.0479L69.3355 9.33478H66.0534L65.341 11.1263H63.6008L66.9286 3.07959ZM68.7249 7.78243L67.6919 5.1918L66.659 7.78243H68.7249Z" fill="white"/>
<path d="M73.0297 3.13525H74.7395V6.62676L77.8892 3.13525H79.9551L76.7952 6.52496L80.1027 11.126H78.052L75.6452 7.72612L74.7445 8.68298V11.126H73.0348V3.13525H73.0297Z" fill="white"/>
<path d="M81.1255 3.13525H84.3007C86.1529 3.13525 87.2723 4.26516 87.2723 5.9193C87.2723 7.76684 85.873 8.72879 84.1328 8.72879H82.8352V11.126H81.1255V3.13525ZM84.1887 7.16626C85.0436 7.16626 85.5423 6.64203 85.5423 5.93456C85.5423 5.14567 85.008 4.72323 84.1531 4.72323H82.8352V7.16626H84.1887Z" fill="white"/>
<path d="M95.2256 11.126H93.5413V5.88876L90.1473 11.126H88.5394V3.13525H90.2237V8.3776L93.6431 3.13525H95.2307V11.126H95.2256Z" fill="white"/>
<path d="M103.667 3.13525V11.126H101.958V4.72323H99.7187V5.3289C99.7187 10.0317 98.9758 11.2329 97.1999 11.2329C96.9201 11.2329 96.513 11.1871 96.2993 11.1311L96.4112 9.68055C96.4876 9.69073 96.569 9.70091 96.6758 9.70091C97.5968 9.70091 98.1159 9.09524 98.1159 4.79448V3.13525H103.667Z" fill="white"/>
<path d="M115.508 3.13525H117.218V6.62676L120.368 3.13525H122.434L119.274 6.52496L122.581 11.126H120.531L118.124 7.72612L117.223 8.68298V11.126H115.508V3.13525Z" fill="white"/>
<path d="M123.609 3.13525H127.212C128.097 3.13525 128.799 3.38465 129.242 3.84272C129.598 4.20917 129.776 4.65197 129.776 5.22201C129.776 6.12288 129.308 6.62676 128.754 6.94741C129.654 7.30368 130.209 7.8381 130.209 8.93237C130.209 10.3931 129.054 11.126 127.303 11.126H123.609V3.13525ZM126.845 6.36719C127.598 6.36719 128.077 6.11779 128.077 5.50194C128.077 4.97771 127.675 4.67742 126.957 4.67742H125.273V6.36719H126.845ZM127.303 9.58894C128.056 9.58894 128.514 9.3141 128.514 8.69825C128.514 8.16383 128.128 7.82792 127.247 7.82792H125.273V9.58385H127.303V9.58894Z" fill="white"/>
<path d="M134.056 3.07959H135.633L138.961 11.1263H137.175L136.463 9.33478H133.175L132.463 11.1263H130.723L134.056 3.07959ZM135.852 7.78243L134.819 5.1918L133.786 7.78243H135.852Z" fill="white"/>
<path d="M140.157 3.13525H143.332C145.184 3.13525 146.304 4.26516 146.304 5.9193C146.304 7.76684 144.904 8.72879 143.164 8.72879H141.867V11.126H140.157V3.13525ZM143.22 7.16626C144.075 7.16626 144.574 6.64203 144.574 5.93456C144.574 5.14567 144.039 4.72323 143.184 4.72323H141.867V7.16626H143.22Z" fill="white"/>
<path d="M153.326 11.126H147.566V3.13525H149.275V9.53804H152.339V3.13525H154.048V9.53804H154.969L154.745 12.7903H153.326V11.126Z" fill="white"/>
<path d="M166.144 3.13525H167.986L170.026 6.51479L172.067 3.13525H173.909V11.126H172.209V5.90912L170.021 9.32428H169.975L167.813 5.94474V11.126H166.139V3.13525H166.144Z" fill="white"/>
<path d="M175.771 3.13525H178.946C180.798 3.13525 181.918 4.26516 181.918 5.9193C181.918 7.76684 180.519 8.72879 178.778 8.72879H177.481V11.126H175.771V3.13525ZM178.834 7.16626C179.689 7.16626 180.188 6.64203 180.188 5.93456C180.188 5.14567 179.654 4.72323 178.799 4.72323H177.481V7.16626H178.834Z" fill="white"/>
<path d="M185.068 3.07959H186.645L189.973 11.1263H188.187L187.474 9.33478H184.187L183.475 11.1263H181.735L185.068 3.07959ZM186.864 7.78243L185.831 5.1918L184.798 7.78243H186.864Z" fill="white"/>
<path d="M191.169 3.13525H193.011L195.051 6.51479L197.092 3.13525H198.934V11.126H197.234V5.90912L195.046 9.32428H195L192.838 5.94474V11.126H191.164V3.13525H191.169Z" fill="white"/>
<path d="M200.45 7.13085C200.45 4.86086 202.19 2.99805 204.587 2.99805C206.984 2.99805 208.704 4.83541 208.704 7.13085C208.704 9.40084 206.963 11.2636 204.567 11.2636C202.17 11.2636 200.45 9.42628 200.45 7.13085ZM206.923 7.13085C206.923 5.76173 205.946 4.62165 204.572 4.62165C203.198 4.62165 202.241 5.74137 202.241 7.13085C202.241 8.49997 203.218 9.64005 204.592 9.64005C205.966 9.64514 206.923 8.52541 206.923 7.13085Z" fill="white"/>
<path d="M210.225 3.13525H213.4C215.252 3.13525 216.372 4.26516 216.372 5.9193C216.372 7.76684 214.973 8.72879 213.232 8.72879H211.935V11.126H210.225V3.13525ZM213.288 7.16626C214.143 7.16626 214.642 6.64203 214.642 5.93456C214.642 5.14567 214.108 4.72323 213.253 4.72323H211.935V7.16626H213.288Z" fill="white"/>
<path d="M0.279861 58.75H1.42986L3.29732 61.6562L5.16479 58.75H6.31479V64.8932H5.23603V60.4856L3.29732 63.3816H3.2617L1.33826 60.5008V64.8881H0.279861V58.75Z" fill="#B2AAAA"/>
<path d="M10.0701 58.7041H11.0725L13.7745 64.8931H12.6347L12.0139 63.412H9.10835L8.47738 64.8931H7.37318L10.0701 58.7041ZM11.6119 62.4552L10.5484 59.9969L9.49508 62.4552H11.6119Z" fill="#B2AAAA"/>
<path d="M14.2019 61.819C14.2019 60.0733 15.5097 58.6431 17.3669 58.6431C18.4966 58.6431 19.1835 59.0401 19.7687 59.5999L19.0767 60.399C18.5831 59.9409 18.059 59.6355 17.3568 59.6355C16.1813 59.6355 15.3316 60.6026 15.3316 61.819C15.3316 63.0202 16.1813 64.0025 17.3568 64.0025C18.1099 64.0025 18.5933 63.6971 19.1225 63.2034L19.8145 63.9058C19.1734 64.5725 18.4711 64.995 17.3212 64.995C15.5351 65 14.2019 63.6004 14.2019 61.819Z" fill="#B2AAAA"/>
<path d="M22.4554 59.7473H20.5065V58.7446H25.4881V59.7473H23.5393V64.8878H22.4503V59.7473H22.4554Z" fill="#B2AAAA"/>
<path d="M26.628 58.75H31.1821V59.717H27.7067V61.3152H30.7852V62.2822H27.7067V63.9313H31.2228V64.8983H26.6229V58.75H26.628Z" fill="#B2AAAA"/>
<path d="M32.5051 58.75H34.9273C36.3571 58.75 37.2629 59.5643 37.2629 60.8215C37.2629 62.2008 36.1587 62.9184 34.8051 62.9184H33.5839V64.8932H32.5051V58.75ZM34.8407 61.9463C35.6549 61.9463 36.1638 61.4882 36.1638 60.8317C36.1638 60.114 35.6447 59.7323 34.8407 59.7323H33.5839V61.9412H34.8407V61.9463Z" fill="#B2AAAA"/>
<path d="M39.9241 58.7041H40.9265L43.6285 64.8931H42.4887L41.8679 63.412H38.9624L38.3314 64.8931H37.2272L39.9241 58.7041ZM41.471 62.4552L40.4075 59.9969L39.3542 62.4552H41.471Z" fill="#B2AAAA"/>
<path d="M47.2057 58.75H48.2336L50.9865 62.9642V58.75H52.0856V64.8932H51.1493L48.3048 60.5772V64.8932H47.2057V58.75ZM52.6911 61.1879C52.6911 60.4703 53.2356 59.8901 53.9785 59.8901C54.7163 59.8901 55.2608 60.4601 55.2608 61.1778C55.2608 61.8954 54.7061 62.4756 53.9734 62.4756C53.2254 62.4807 52.6911 61.9107 52.6911 61.1879ZM52.8183 62.9948H55.1081V63.6615H52.8183V62.9948ZM54.584 61.1879C54.584 60.8011 54.3296 60.4856 53.9683 60.4856C53.5917 60.4856 53.3526 60.791 53.3526 61.1879C53.3526 61.5646 53.607 61.8903 53.9734 61.8903C54.3448 61.8903 54.584 61.5748 54.584 61.1879Z" fill="#B2AAAA"/>
<path d="M59.932 59.8037L58.8278 60.1091L58.5988 59.2337L60.2475 58.7095H61.0006V64.8985H59.932V59.8037Z" fill="#B2AAAA"/>
<path d="M65.2647 58.75H68.0176C68.7198 58.75 69.2744 58.9434 69.6255 59.2946C69.8952 59.5643 70.0377 59.9003 70.0377 60.3329C70.0377 61.0709 69.6154 61.4628 69.1625 61.702C69.88 61.9463 70.3837 62.3586 70.3837 63.2136C70.3837 64.313 69.478 64.8983 68.1092 64.8983H65.2647V58.75ZM67.7988 61.3406C68.4908 61.3406 68.9589 61.0709 68.9589 60.4907C68.9589 60.0071 68.5722 59.7119 67.8802 59.7119H66.3282V61.3457H67.7988V61.3406ZM68.1143 63.9364C68.8521 63.9364 69.2999 63.6462 69.2999 63.0762C69.2999 62.5571 68.8877 62.2517 68.0379 62.2517H66.3282V63.9364H68.1143Z" fill="#B2AAAA"/>
<path d="M74.2255 58.75H75.3093V61.8394L78.2301 58.75H79.5531L76.9987 61.3915L79.6651 64.8932H78.3624L76.266 62.1295L75.3093 63.1118V64.8932H74.2306V58.75H74.2255Z" fill="#B2AAAA"/>
<path d="M80.5861 58.75H83.0082C84.4381 58.75 85.3438 59.5643 85.3438 60.8215C85.3438 62.2008 84.2396 62.9184 82.8861 62.9184H81.6649V64.8932H80.5861V58.75ZM82.9217 61.9463C83.7359 61.9463 84.2447 61.4882 84.2447 60.8317C84.2447 60.114 83.7257 59.7323 82.9217 59.7323H81.6649V61.9412H82.9217V61.9463Z" fill="#B2AAAA"/>
<path d="M86.448 58.75H87.5166V60.964H88.9312C90.3101 60.964 91.2363 61.646 91.2363 62.8879C91.2363 64.1247 90.3407 64.8983 88.921 64.8983H86.448V58.75ZM88.9006 63.9262C89.6995 63.9262 90.1626 63.5648 90.1626 62.8726C90.1626 62.2415 89.6995 61.9005 88.8803 61.9005H87.5115V63.9262H88.9006ZM91.9639 58.75H93.0325V64.8932H91.9639V58.75Z" fill="#B2AAAA"/>
<path d="M94.6099 58.75H95.7599L97.6274 61.6562L99.4948 58.75H100.645V64.8932H99.5661V60.4856L97.6274 63.3816H97.5918L95.6683 60.5008V64.8881H94.6048V58.75H94.6099Z" fill="#B2AAAA"/>
<path d="M102.085 64.6845L102.497 63.8753C102.741 64.0178 102.98 64.0687 103.25 64.0687C103.52 64.0687 103.907 63.9007 104.217 63.4019L101.657 58.75H102.869L104.782 62.3229L106.466 58.75H107.631L105.235 63.5495C104.716 64.5929 104.085 64.9899 103.286 64.9899C102.813 64.9899 102.446 64.8729 102.085 64.6845Z" fill="#B2AAAA"/>
<path d="M111.275 58.75H116.287V64.8932H115.208V59.7221H112.358V64.8932H111.28V58.75H111.275Z" fill="#B2AAAA"/>
<path d="M117.589 61.819C117.589 60.0885 118.923 58.6431 120.81 58.6431C122.698 58.6431 124.011 60.0733 124.011 61.819C124.011 63.5495 122.678 64.995 120.79 64.995C118.907 65 117.589 63.5699 117.589 61.819ZM122.881 61.819C122.881 60.628 122.011 59.6355 120.795 59.6355C119.574 59.6355 118.724 60.6077 118.724 61.819C118.724 63.01 119.594 64.0025 120.81 64.0025C122.032 64.0076 122.881 63.0303 122.881 61.819Z" fill="#B2AAAA"/>
<path d="M127.68 61.819C127.68 60.0885 129.013 58.6431 130.901 58.6431C132.789 58.6431 134.102 60.0733 134.102 61.819C134.102 63.5495 132.768 64.995 130.881 64.995C128.993 65 127.68 63.5699 127.68 61.819ZM132.967 61.819C132.967 60.628 132.097 59.6355 130.881 59.6355C129.659 59.6355 128.81 60.6077 128.81 61.819C128.81 63.01 129.68 64.0025 130.896 64.0025C132.117 64.0076 132.967 63.0303 132.967 61.819Z" fill="#B2AAAA"/>
<path d="M135.404 58.75H139.984V59.7221H136.473V61.1371H138.182C139.536 61.1371 140.411 61.814 140.411 62.9999C140.411 64.2265 139.536 64.8932 138.132 64.8932H135.404V58.75ZM137.898 63.9262C138.829 63.9262 139.338 63.7073 139.338 62.9541C139.338 62.3586 138.89 62.0481 138.091 62.0481H136.478V63.9262H137.898Z" fill="#B2AAAA"/>
<path d="M141.632 58.75H144.055C145.484 58.75 146.39 59.5643 146.39 60.8215C146.39 62.2008 145.286 62.9184 143.932 62.9184H142.711V64.8932H141.632V58.75ZM143.968 61.9463C144.782 61.9463 145.291 61.4882 145.291 60.8317C145.291 60.114 144.772 59.7323 143.968 59.7323H142.711V61.9412H143.968V61.9463Z" fill="#B2AAAA"/>
<path d="M149.051 58.7041H150.054L152.756 64.8931H151.616L150.995 63.412H148.09L147.459 64.8931H146.355L149.051 58.7041ZM150.598 62.4552L149.535 59.9969L148.482 62.4552H150.598Z" fill="#B2AAAA"/>
<path d="M153.804 58.75H158.384V59.7221H154.873V61.1371H156.582C157.936 61.1371 158.811 61.814 158.811 62.9999C158.811 64.2265 157.936 64.8932 156.532 64.8932H153.804V58.75ZM156.297 63.9262C157.229 63.9262 157.737 63.7073 157.737 62.9541C157.737 62.3586 157.29 62.0481 156.491 62.0481H154.878V63.9262H156.297Z" fill="#B2AAAA"/>
<path d="M159.763 61.819C159.763 60.0885 161.096 58.6431 162.984 58.6431C164.872 58.6431 166.184 60.0733 166.184 61.819C166.184 63.5495 164.851 64.995 162.963 64.995C161.076 65 159.763 63.5699 159.763 61.819ZM165.05 61.819C165.05 60.628 164.179 59.6355 162.963 59.6355C161.742 59.6355 160.892 60.6077 160.892 61.819C160.892 63.01 161.762 64.0025 162.979 64.0025C164.2 64.0076 165.05 63.0303 165.05 61.819Z" fill="#B2AAAA"/>
<path d="M168.561 59.7473H166.612V58.7446H171.593V59.7473H169.645V64.8878H168.556V59.7473H168.561Z" fill="#B2AAAA"/>
<path d="M172.733 58.75H173.812V61.8394L176.733 58.75H178.056L175.501 61.3915L178.168 64.8932H176.86L174.764 62.1295L173.807 63.1118V64.8932H172.728V58.75H172.733Z" fill="#B2AAAA"/>
<path d="M179.094 58.75H183.648V59.717H180.173V61.3152H183.251V62.2822H180.173V63.9313H183.689V64.8983H179.089V58.75H179.094Z" fill="#B2AAAA"/>
<path d="M187.602 58.75H188.68V61.8394L191.601 58.75H192.924L190.37 61.3915L193.036 64.8932H191.728L189.632 62.1295L188.68 63.1118V64.8932H187.602V58.75Z" fill="#B2AAAA"/>
<path d="M196.135 58.7041H197.138L199.839 64.8931H198.7L198.079 63.412H195.173L194.542 64.8931H193.438L196.135 58.7041ZM197.682 62.4552L196.618 59.9969L195.565 62.4552H197.682Z" fill="#B2AAAA"/>
<path d="M200.888 58.75H202.038L203.905 61.6562L205.773 58.75H206.923V64.8932H205.844V60.4856L203.905 63.3816H203.87L201.946 60.5008V64.8881H200.883V58.75H200.888Z" fill="#B2AAAA"/>
<path d="M208.5 58.75H209.579V61.305H212.51V58.75H213.589V64.8932H212.51V62.3026H209.579V64.8932H208.5V58.75Z" fill="#B2AAAA"/>
<path d="M216.372 62.5822C215.512 62.343 214.906 61.7221 214.906 60.7041C214.906 59.5081 215.777 58.7446 217.196 58.7446H219.924V64.8878H218.855V62.7655H217.496L215.97 64.8878H214.698L216.372 62.5822ZM218.855 61.829V59.7218H217.283C216.474 59.7218 215.995 60.1087 215.995 60.7754C215.995 61.4167 216.494 61.829 217.268 61.829H218.855Z" fill="#B2AAAA"/>
</g>
<defs>
<clipPath id="clip0_37_848">
<rect width="220" height="65" fill="white"/>
</clipPath>
</defs>
</svg>
