<svg width="30" height="31" viewBox="0 0 30 31" fill="none" xmlns="http://www.w3.org/2000/svg">
<rect y="0.249954" width="30" height="30" rx="6" fill="#1393E2"/>
<g clip-path="url(#clip0_101_6)">
<path d="M20.4102 8.89471L7.08739 14.1366C7.08739 14.1366 6.45534 14.3513 6.50511 14.7507C6.55488 15.1501 7.06749 15.3348 7.06749 15.3348L10.4169 16.4681L10.4218 16.473V16.4681L18.4643 11.3409C18.4643 11.3409 18.9271 11.0564 18.9122 11.3409C18.9122 11.3409 18.9968 11.3909 18.748 11.6255C18.4991 11.8601 12.4275 17.3317 12.4275 17.3317L12.4175 17.4366L17.882 21.6401C18.7928 22.0395 19.1262 21.2058 19.1262 21.2058L21.5001 9.20922C21.5001 8.41045 20.4052 8.89471 20.4102 8.89471Z" fill="white"/>
<path d="M14.5076 19.0441L12.3427 21.0261C12.3427 21.0261 12.1735 21.1559 11.9894 21.076L12.4025 17.3967" fill="white"/>
</g>
<defs>
<clipPath id="clip0_101_6">
<rect width="15" height="13" fill="white" transform="translate(6.5 8.74995)"/>
</clipPath>
</defs>
</svg>
