<svg width="30" height="31" viewBox="0 0 30 31" fill="none" xmlns="http://www.w3.org/2000/svg">
<rect y="0.750046" width="30" height="30" rx="6" fill="#7360F2"/>
<g clip-path="url(#clip0_101_7)">
<path d="M22.02 16.8334C21.5812 20.4834 18.9318 20.7168 18.4425 20.8834C18.24 20.9501 16.2993 21.4334 13.8862 21.2834L11.2537 24.1668V20.8501H11.2368C7.70995 19.8501 7.82808 16.1334 7.86183 14.1834C7.89558 12.2334 8.26683 10.6334 9.34683 9.55011C11.2875 7.78345 15.27 8.05011 15.27 8.05011C18.645 8.06678 20.2481 9.08345 20.6193 9.43345C21.8512 10.5001 22.4925 13.0668 22.02 16.8334ZM21.5306 8.50011C21.0918 8.10011 19.3031 6.78345 15.3206 6.76678C15.3206 6.76678 10.6293 6.48345 8.33433 8.60011C7.0687 9.88345 6.61308 11.7668 6.57933 14.1001C6.5287 16.4334 6.47808 20.8168 10.6462 22.0001V23.8168C10.6462 23.8168 10.6125 24.5501 11.1018 24.7001C11.6756 24.8834 12.0131 24.3168 12.57 23.7168C12.8737 23.3834 13.2956 22.9001 13.5993 22.5334C16.4512 22.7834 18.645 22.2168 18.8981 22.1334C19.4718 21.9501 22.7287 21.5168 23.2687 17.1501C23.8087 12.6501 22.9987 9.78345 21.5306 8.50011Z" fill="white"/>
<path d="M18.9824 17.3834C18.9824 17.3834 18.4424 16.9334 18.1893 16.7334C17.9361 16.55 17.548 16.3 17.3286 16.1834C16.9405 15.9667 16.5355 16.1 16.3668 16.3167L16.0293 16.75C15.8605 16.9667 15.5736 16.9334 15.5061 16.9167C14.9999 16.7834 14.4599 16.4834 13.903 15.95C13.3461 15.4167 13.0086 14.85 12.8905 14.2834L12.8736 14.25C12.8399 14.0167 12.8736 13.9 12.9749 13.7334L12.9918 13.7167C13.228 13.5 13.6499 13.25 13.7174 13C13.8861 12.5667 13.1436 11.6667 13.0424 11.5167C13.0424 11.5167 12.5024 10.8167 12.3168 10.6834C12.1143 10.5167 11.7936 10.4167 11.473 10.6167H11.4561C10.528 11.2334 10.2074 11.5834 10.2918 12.1167L10.3424 12.3334C10.8149 13.7834 11.7093 15.35 13.0593 16.7334C14.3924 18.0834 15.8436 18.9 17.2611 19.4667C17.6324 19.5834 18.0205 19.4834 18.4086 19.15C18.7124 18.8667 18.9486 18.5667 19.1174 18.25C19.303 17.9167 19.2355 17.6 18.9824 17.3834Z" fill="white"/>
<path d="M16.7718 14.1834C16.7212 14.1834 16.6706 14.1334 16.6706 14.0834C16.6537 13.7 16.5524 13.4167 16.3668 13.2167C16.1812 13.0167 15.9112 12.9167 15.5568 12.9C15.5062 12.9 15.4556 12.85 15.4556 12.7834C15.4556 12.7167 15.5062 12.6834 15.5737 12.6834C15.9956 12.7 16.3162 12.8334 16.5356 13.0667C16.7549 13.3 16.8731 13.6334 16.9068 14.0667C16.8899 14.1334 16.8393 14.1834 16.7718 14.1834Z" fill="white"/>
<path d="M17.818 14.55C17.7505 14.55 17.7168 14.5 17.7168 14.4334C17.7337 13.7167 17.5143 13.1 17.0755 12.6167C16.8562 12.3667 16.5862 12.1834 16.2824 12.05C15.9787 11.9167 15.6243 11.8334 15.2193 11.8C15.1687 11.8 15.118 11.75 15.118 11.6834C15.118 11.6167 15.1687 11.5834 15.2362 11.5834C16.0799 11.65 16.7549 11.95 17.2274 12.4667C17.6999 13 17.9362 13.65 17.9193 14.4334C17.9362 14.5 17.8855 14.55 17.818 14.55Z" fill="white"/>
<path d="M18.898 14.9667C18.8474 14.9667 18.7968 14.9167 18.7968 14.8667C18.7968 14.2334 18.6955 13.65 18.5099 13.15C18.3243 12.65 18.0374 12.2167 17.6661 11.85C17.2949 11.4834 16.873 11.2 16.4174 11.0167C15.9618 10.8334 15.4386 10.7334 14.8818 10.7334C14.8311 10.7334 14.7805 10.6834 14.7805 10.6334C14.7805 10.5667 14.8311 10.5334 14.8818 10.5334C16.0461 10.55 17.0249 10.9334 17.818 11.7167C18.2061 12.1 18.5099 12.5667 18.7124 13.1C18.9149 13.6334 19.0161 14.2334 19.0161 14.9C19.0161 14.9167 18.9655 14.9667 18.898 14.9667Z" fill="white"/>
</g>
<defs>
<clipPath id="clip0_101_7">
<rect width="16.875" height="18" fill="white" transform="translate(6.5625 6.75005)"/>
</clipPath>
</defs>
</svg>
