<svg width="30" height="31" viewBox="0 0 30 31" fill="none" xmlns="http://www.w3.org/2000/svg">
<rect y="0.749863" width="30" height="30" rx="6" fill="#416794"/>
<g clip-path="url(#clip0_101_5)">
<path d="M6.08302 12.2624C5.93012 11.8802 5.73475 11.4816 6.19769 11.2661C7.1363 11.2539 8.0749 11.2417 9.01776 11.2295C9.42548 11.2417 9.61235 11.5304 9.82895 11.933C10.4618 13.1002 11.1201 14.2633 11.9143 15.3328C12.1734 15.6825 12.6108 15.8167 12.9548 15.2596C12.993 14.5073 13.0313 13.7549 13.0695 13.0026C12.9421 12.1282 12.6235 11.6118 12.0672 11.5589C11.7486 11.262 11.978 11.018 12.6915 10.8879C13.8255 10.6561 14.815 10.7618 15.6857 10.8676C16.4204 10.9123 16.5266 11.3881 16.5139 11.933C16.4884 12.9294 16.4672 13.9298 16.4672 14.9261C16.6838 15.9387 17.2614 15.5321 17.6436 15.0929C18.3274 14.1616 18.922 13.2547 19.4189 12.234C19.9328 11.1848 20.0729 11.262 20.434 11.258C21.2961 11.2539 22.2475 11.2132 22.9355 11.2376C24.371 11.1563 24.2054 11.7663 23.8019 12.4129C23.1054 13.5394 22.2092 14.5561 21.4108 15.6297C20.9266 16.26 20.9351 16.6545 21.449 16.9961C22.2092 17.7972 23.0332 18.5455 23.7255 19.3995C24.4772 20.3308 23.9251 20.587 23.2243 20.6561C22.3876 20.6561 21.5509 20.6561 20.7143 20.6561C20.0007 20.6683 19.3552 20.4975 18.9008 19.7696C17.8517 18.4397 17.0703 18.0737 16.756 18.822C16.6201 19.1514 16.5054 19.5947 16.5096 20.0258C16.5139 20.6276 16.1359 20.6764 15.622 20.6927C15.0699 20.6927 14.4965 20.8228 13.9614 20.6927C12.0672 20.2332 10.2494 19.3873 8.47838 16.4796C7.67992 15.223 6.88147 13.8484 6.08302 12.2624Z" fill="white"/>
</g>
<defs>
<clipPath id="clip0_101_5">
<rect width="18.1818" height="10" fill="white" transform="translate(5.90918 10.75)"/>
</clipPath>
</defs>
</svg>
