<svg width="30" height="31" viewBox="0 0 30 31" fill="none" xmlns="http://www.w3.org/2000/svg">
<rect y="0.250137" width="30" height="30" rx="6" fill="#33CE62"/>
<g clip-path="url(#clip0_101_8)">
<path d="M20.664 9.57452C19.16 8.078 17.16 7.25014 15.032 7.25014C10.648 7.25014 7.064 10.8004 7.064 15.1785C7.064 16.5795 7.432 17.9327 8.12 19.1427L7 23.2501L11.224 22.1516C12.392 22.7884 13.704 23.1228 15.032 23.1228C19.416 23.1228 23 19.5725 23 15.1944C23 13.0611 22.168 11.071 20.664 9.57452ZM15.032 21.7695C13.848 21.7695 12.68 21.4511 11.656 20.8462L11.416 20.7029L8.92 21.3715L9.592 18.9357L9.432 18.681C8.776 17.6302 8.424 16.4203 8.424 15.1785C8.408 11.5486 11.384 8.58745 15.032 8.58745C16.808 8.58745 18.456 9.27203 19.72 10.5138C20.968 11.7556 21.656 13.4113 21.656 15.1785C21.656 18.8083 18.68 21.7695 15.032 21.7695ZM18.664 16.8342C18.472 16.7387 17.48 16.2611 17.304 16.1974C17.128 16.1337 16.984 16.1019 16.856 16.2929C16.728 16.484 16.344 16.9297 16.232 17.073C16.12 17.2004 15.992 17.2163 15.8 17.1208C15.608 17.0253 14.952 16.8183 14.2 16.1337C13.608 15.6083 13.208 14.9556 13.096 14.7646C12.984 14.5735 13.08 14.4621 13.176 14.3666C13.272 14.271 13.368 14.1277 13.48 14.0163C13.576 13.9049 13.608 13.8253 13.672 13.682C13.736 13.5546 13.704 13.4273 13.656 13.3317C13.608 13.2362 13.208 12.2651 13.048 11.8671C12.888 11.485 12.728 11.5327 12.6 11.5327C12.488 11.5327 12.344 11.5327 12.216 11.5327C12.088 11.5327 11.864 11.5805 11.688 11.7875C11.512 11.9785 10.984 12.472 10.984 13.4432C10.984 14.4143 11.704 15.3536 11.8 15.4969C11.896 15.6243 13.208 17.6302 15.208 18.4899C15.688 18.6969 16.056 18.8083 16.344 18.9039C16.824 19.0472 17.256 19.0312 17.592 18.9835C17.976 18.9198 18.776 18.5059 18.936 18.0442C19.096 17.5825 19.096 17.1845 19.048 17.1049C19 16.9775 18.872 16.9297 18.664 16.8342Z" fill="white"/>
</g>
<defs>
<clipPath id="clip0_101_8">
<rect width="16" height="16" fill="white" transform="translate(7 7.25014)"/>
</clipPath>
</defs>
</svg>
